{"title":"Arrow S01E05 HDTV x264-LOLar","uid":7800129,"size":289150959,"categoryP":"video","categoryS":"tv_shows","magnet":"?xt=urn:btih:1ef4c6d5b761c96729936a375dec3c9a90be34a4&amp;dn=Arrow+S01E05+HDTV+x264-LOLar&amp;tr=udp%3A%2F%2Ftracker.openbittorrent.com%3A80&amp;tr=udp%3A%2F%2Fopen.demonii.com%3A1337&amp;tr=udp%3A%2F%2Ftracker.coppersurfer.tk%3A6969&amp;tr=udp%3A%2F%2Fexodus.desync.com%3A6969","seeders":1,"leechers":0,"uploader":"tykoon123","files":2,"time":1352258129,"description":"Info:\n\nFormat : MPEG-4\nFormat profile : Base Media\nCodec ID : isom\nFile size : 276 MiB\nDuration : 41mn 45s\nOverall bit rate mode : Variable\nOverall bit rate : 923 Kbps\nEncoded date : UTC 2012-11-06 19:58:19\nTagged date : UTC 2012-11-06 19:58:19\n\nVideo\nID : 1\nFormat : AVC\nFormat/Info : Advanced Video Codec\nFormat profile : &lt;a class=&quot;__cf_email__&quot; href=&quot;/cdn-cgi/l/email-protection&quot; data-cfemail=&quot;1e567779765e522d302f&quot;&gt;[email&amp;#160;protected]&lt;/a&gt;&lt;script cf-hash='f9e31' type=&quot;text/javascript&quot;&gt;\n/* &lt;![CDATA[ */!function(){try{var t=&quot;currentScript&quot;in document?document.currentScript:function(){for(var t=document.getElementsByTagName(&quot;script&quot;),e=t.length;e--;)if(t[e].getAttribute(&quot;cf-hash&quot;))return t[e]}();if(t&amp;&amp;t.previousSibling){var e,r,n,i,c=t.previousSibling,a=c.getAttribute(&quot;data-cfemail&quot;);if(a){for(e=&quot;&quot;,r=parseInt(a.substr(0,2),16),n=2;a.length-n;n+=2)i=parseInt(a.substr(n,2),16)^r,e+=String.fromCharCode(i);e=document.createTextNode(e),c.parentNode.replaceChild(e,c)}}}catch(u){}}();/* ]]&gt; */&lt;/script&gt;\nFormat settings, CABAC : Yes\nFormat settings, ReFrames : 5 frames\nCodec ID : avc1\nCodec ID/Info : Advanced Video Coding\nDuration : 41mn 45s\nBit rate : 800 Kbps\nMaximum bit rate : 6 404 Kbps\nWidth : 720 pixels\nHeight : 404 pixels\nDisplay aspect ratio : 16:9\nFrame rate mode : Constant\nFrame rate : 23.976 fps\nColor space : YUV\nChroma subsampling : 4:2:0\nBit depth : 8 bits\nScan type : Progressive\nBits/(Pixel*Frame) : 0.115\nStream size : 239 MiB (87%)\nWriting library : x264 core 128 r2216 198a7ea\nMatrix coefficients : BT.709-5, BT.1361, IEC 61966-2-4 709, SMPTE RP177\n\nAudio\nID : 2\nFormat : AAC\nFormat/Info : Advanced Audio Codec\nFormat profile : LC\nCodec ID : 40\nDuration : 41mn 45s\nBit rate mode : Variable\nBit rate : 119 Kbps\nMaximum bit rate : 146 Kbps\nChannel(s) : 2 channels\nChannel positions : Front: L R\nSampling rate : 48.0 KHz\nCompression mode : Lossy\nDelay relative to video : -3s 337ms\nStream size : 35.6 MiB (13%)\nEncoded date : UTC 2012-11-06 19:58:19\nTagged date : UTC 2012-11-06 19:58:20","torrent":{"xt":"urn:btih:1ef4c6d5b761c96729936a375dec3c9a90be34a4","amp;dn":"Arrow+S01E05+HDTV+x264-LOLar","amp;tr":["udp%3A%2F%2Ftracker.openbittorrent.com%3A80","udp%3A%2F%2Fopen.demonii.com%3A1337","udp%3A%2F%2Ftracker.coppersurfer.tk%3A6969","udp%3A%2F%2Fexodus.desync.com%3A6969"],"infoHash":"1ef4c6d5b761c96729936a375dec3c9a90be34a4","infoHashBuffer":{"type":"Buffer","data":[30,244,198,213,183,97,201,103,41,147,106,55,93,236,60,154,144,190,52,164]},"announce":[],"urlList":[]}}